<?xml version="1.0" encoding="UTF-8" standalone="no"?>
<!-- Created with Inkscape (http://www.inkscape.org/) -->

<svg
   width="200.40892mm"
   height="242.35304mm"
   viewBox="0 0 200.40892 242.35304"
   version="1.1"
   id="svg2010"
   xmlns:xlink="http://www.w3.org/1999/xlink"
   xmlns="http://www.w3.org/2000/svg"
   xmlns:svg="http://www.w3.org/2000/svg">
  <defs
     id="defs2007">
    <linearGradient
       id="SVGID_1_"
       gradientUnits="userSpaceOnUse"
       x1="-305.52081"
       y1="-414.49149"
       x2="446.6221"
       y2="485.20499"
       gradientTransform="matrix(1,0,0,-1,0.04,73.439)">
      <stop
         offset="0"
         style="stop-color:#0E347A"
         id="stop2" />
      <stop
         offset="0.25"
         style="stop-color:#003D84"
         id="stop4" />
      <stop
         offset="0.5423"
         style="stop-color:#00549E"
         id="stop6" />
      <stop
         offset="0.75"
         style="stop-color:#0062AE"
         id="stop8" />
      <stop
         offset="1"
         style="stop-color:#0075BE"
         id="stop10" />
    </linearGradient>
    <linearGradient
       id="SVGID_2_"
       gradientUnits="userSpaceOnUse"
       x1="-300.25659"
       y1="-411.15161"
       x2="450.08759"
       y2="493.03949"
       gradientTransform="matrix(0.26458333,0,0,-0.26458333,85.303469,145.55963)">
      <stop
         offset="0"
         style="stop-color:#0E347A"
         id="stop15" />
      <stop
         offset="0.25"
         style="stop-color:#003D84"
         id="stop17" />
      <stop
         offset="0.5423"
         style="stop-color:#00549E"
         id="stop19" />
      <stop
         offset="0.75"
         style="stop-color:#0062AE"
         id="stop21" />
      <stop
         offset="1"
         style="stop-color:#0075BE"
         id="stop23" />
    </linearGradient>
    <clipPath
       id="SVGID_4_">
      <use
         xlink:href="#SVGID_3_"
         overflow="visible"
         id="use31" />
    </clipPath>
    <clipPath
       id="SVGID_6_">
      <use
         xlink:href="#SVGID_5_"
         overflow="visible"
         id="use45" />
    </clipPath>
    <clipPath
       id="SVGID_8_">
      <use
         xlink:href="#SVGID_7_"
         overflow="visible"
         id="use59" />
    </clipPath>
    <clipPath
       id="SVGID_10_">
      <use
         xlink:href="#SVGID_9_"
         overflow="visible"
         id="use71" />
    </clipPath>
    <clipPath
       id="SVGID_12_">
      <use
         xlink:href="#SVGID_11_"
         overflow="visible"
         id="use85" />
    </clipPath>
    <linearGradient
       id="SVGID_13_"
       gradientUnits="userSpaceOnUse"
       x1="-284.42899"
       y1="-398.69849"
       x2="428.12701"
       y2="473.103"
       gradientTransform="matrix(0.26458333,0,0,-0.26458333,85.303469,145.55963)">
      <stop
         offset="0"
         style="stop-color:#FFD400"
         id="stop96" />
      <stop
         offset="0.9"
         style="stop-color:#FFE500"
         id="stop98" />
      <stop
         offset="1"
         style="stop-color:#FFE500"
         id="stop100" />
    </linearGradient>
    <linearGradient
       id="SVGID_14_"
       gradientUnits="userSpaceOnUse"
       x1="-209.6492"
       y1="-330.509"
       x2="357.15991"
       y2="390.14819"
       gradientTransform="matrix(0.26458333,0,0,-0.26458333,85.303469,145.55963)">
      <stop
         offset="0"
         style="stop-color:#0E347A"
         id="stop139" />
      <stop
         offset="0.25"
         style="stop-color:#003D84"
         id="stop141" />
      <stop
         offset="0.5423"
         style="stop-color:#00549E"
         id="stop143" />
      <stop
         offset="0.75"
         style="stop-color:#0062AE"
         id="stop145" />
      <stop
         offset="1"
         style="stop-color:#0075BE"
         id="stop147" />
    </linearGradient>
    <path
       id="SVGID_3_"
       d="m -285.437,466.849 v -867.048 l 6.943,-6.199 h 706.352 l 6.79,5.229 v 867.928 l -6.089,5.467 H -279.47 Z m -14.481,-891.92 c -2.314,0 -4.202,1.872 -4.202,4.186 v 907.608 c 0,2.314 1.888,4.186 4.202,4.186 h 749.043 c 2.319,0 4.206,-1.877 4.206,-4.186 v -907.608 c 0,-2.314 -1.887,-4.186 -4.206,-4.186 z" />
    <path
       id="SVGID_5_"
       d="m -285.437,466.849 v -867.048 l 6.943,-6.199 h 706.352 l 6.79,5.229 v 867.928 l -6.089,5.467 H -279.47 Z m -14.481,-891.92 c -2.314,0 -4.202,1.872 -4.202,4.186 v 907.608 c 0,2.314 1.888,4.186 4.202,4.186 h 749.043 c 2.319,0 4.206,-1.877 4.206,-4.186 v -907.608 c 0,-2.314 -1.887,-4.186 -4.206,-4.186 z" />
    <path
       id="SVGID_7_"
       d="m -285.437,466.849 v -867.048 l 6.943,-6.199 h 706.352 l 6.79,5.229 v 867.928 l -6.089,5.467 H -279.47 Z m -14.481,-891.92 c -2.314,0 -4.202,1.872 -4.202,4.186 v 907.608 c 0,2.314 1.888,4.186 4.202,4.186 h 749.043 c 2.319,0 4.206,-1.877 4.206,-4.186 v -907.608 c 0,-2.314 -1.887,-4.186 -4.206,-4.186 z" />
    <path
       id="SVGID_9_"
       d="m -285.437,466.849 v -867.048 l 6.943,-6.199 h 706.352 l 6.79,5.229 v 867.928 l -6.089,5.467 H -279.47 Z m -14.481,-891.92 c -2.314,0 -4.202,1.872 -4.202,4.186 v 907.608 c 0,2.314 1.888,4.186 4.202,4.186 h 749.043 c 2.319,0 4.206,-1.877 4.206,-4.186 v -907.608 c 0,-2.314 -1.887,-4.186 -4.206,-4.186 z" />
    <path
       id="SVGID_11_"
       d="m -285.437,466.849 v -867.048 l 6.943,-6.199 h 706.352 l 6.79,5.229 v 867.928 l -6.089,5.467 H -279.47 Z m -14.481,-891.92 c -2.314,0 -4.202,1.872 -4.202,4.186 v 907.608 c 0,2.314 1.888,4.186 4.202,4.186 h 749.043 c 2.319,0 4.206,-1.877 4.206,-4.186 v -907.608 c 0,-2.314 -1.887,-4.186 -4.206,-4.186 z" />
  </defs>
  <g
     id="layer1"
     transform="translate(-4.8278042,-13.66219)">
    <polygon
       fill="url(#SVGID_1_)"
       points="-285.437,-400.199 -285.437,467.598 -279.469,472.226 428.559,472.226 434.648,466.759 434.648,-401.169 427.858,-406.399 -278.494,-406.399 "
       id="polygon13"
       style="fill:url(#SVGID_1_)"
       transform="matrix(0.26458333,0,0,0.26458333,85.292886,126.12889)" />
    <path
       fill="url(#SVGID_2_)"
       d="M 9.7710145,249.84753 V 20.242907 L 11.608016,18.602755 H 198.49698 l 1.79653,1.383506 V 249.62555 l -1.61105,1.44647 H 11.349783 Z M 5.9395833,13.66219 c -0.6122458,0 -1.1117791,0.4953 -1.1117791,1.107546 V 254.90769 c 0,0.61224 0.4995333,1.10754 1.1117791,1.10754 H 204.12388 c 0.61357,0 1.11284,-0.49662 1.11284,-1.10754 V 14.769736 c 0,-0.612246 -0.49927,-1.107546 -1.11284,-1.107546 z"
       id="path26"
       style="fill:url(#SVGID_2_);stroke-width:0.264583" />
    <g
       id="g40"
       transform="matrix(0.26458333,0,0,0.26458333,85.292886,126.12889)">
      <g
         id="g38">
        <defs
           id="defs29" />
        <clipPath
           id="clipPath3847">
          <use
             xlink:href="#SVGID_3_"
             overflow="visible"
             id="use3845" />
        </clipPath>
        <g
           transform="translate(1.037872e-6)"
           clip-path="url(#SVGID_4_)"
           id="g36" />
      </g>
    </g>
    <g
       id="g54"
       transform="matrix(0.26458333,0,0,0.26458333,85.292886,126.12889)">
      <g
         id="g52">
        <defs
           id="defs43" />
        <clipPath
           id="clipPath3857">
          <use
             xlink:href="#SVGID_5_"
             overflow="visible"
             id="use3855" />
        </clipPath>
        <g
           clip-path="url(#SVGID_6_)"
           id="g50" />
      </g>
    </g>
    <g
       id="g80"
       transform="matrix(0.26458333,0,0,0.26458333,85.292886,126.12889)">
      <g
         id="g66">
        <defs
           id="defs57" />
        <clipPath
           id="clipPath3867">
          <use
             xlink:href="#SVGID_7_"
             overflow="visible"
             id="use3865" />
        </clipPath>
        <g
           clip-path="url(#SVGID_8_)"
           id="g64" />
      </g>
      <g
         id="g78">
        <defs
           id="defs69" />
        <clipPath
           id="clipPath3876">
          <use
             xlink:href="#SVGID_9_"
             overflow="visible"
             id="use3874" />
        </clipPath>
        <g
           clip-path="url(#SVGID_10_)"
           id="g76" />
      </g>
    </g>
    <g
       id="g94"
       transform="matrix(0.26458333,0,0,0.26458333,85.292886,126.12889)">
      <g
         id="g92">
        <defs
           id="defs83" />
        <clipPath
           id="clipPath3886">
          <use
             xlink:href="#SVGID_11_"
             overflow="visible"
             id="use3884" />
        </clipPath>
        <g
           clip-path="url(#SVGID_12_)"
           id="g90" />
      </g>
    </g>
    <path
       fill="url(#SVGID_13_)"
       d="m 11.41831,18.60249 c -0.906727,0 -1.6472955,0.741892 -1.6472955,1.647296 V 249.42473 c 0,0.90646 0.7405685,1.64729 1.6472955,1.64729 h 187.22684 c 0.90673,0 1.64836,-0.74189 1.64836,-1.64729 V 20.249786 c 0,-0.905139 -0.7419,-1.647296 -1.64836,-1.647296 z"
       id="path103"
       style="fill:url(#SVGID_13_);stroke-width:0.264583" />
    <path
       fill="url(#SVGID_14_)"
       d="m 28.932668,205.82483 v 26.05485 0.002 h 25.626483 v -6.16902 H 36.835507 v -4.19444 h 17.723644 v -5.69357 H 36.835507 v -4.12432 h 17.723644 v -5.87508 z m 38.548997,6.16823 h 3.895725 c 5.619486,0 9.267031,1.97062 9.267031,6.71301 0,5.21785 -3.028156,6.89875 -9.267031,7.0059 h -3.895725 z m -7.57211,-6.16823 V 231.881 H 72.83789 c 9.603052,0 15.490561,-4.60005 15.490561,-13.13736 0,-8.0645 -5.79808,-12.91881 -15.490561,-12.91881 z m 81.444575,0 -9.80123,11.24771 v -11.24771 h -7.90707 V 231.881 h 7.90707 v -5.55678 l 4.12856,-3.75761 7.05035,9.31439 h 9.63666 l -11.42736,-14.57299 10.74976,-11.48185 h -10.33674 z m 26.74646,6.2865 h 0.89403 l 3.24564,8.65056 h -7.17073 z m -5.65599,-6.2865 -8.71882,26.05617 h 7.84701 l 1.59412,-4.67254 h 11.01989 l 1.41711,4.67254 h 7.77478 l -8.81512,-26.05617 z m -69.831487,0 V 231.881 h 25.624897 v -6.05896 h -17.72205 v -4.3045 h 17.72205 v -5.69357 h -17.72205 v -4.12433 l 17.5969,0.099 v -5.9862 z M 28.932668,40.055701 V 190.87561 H 178.20159 V 150.20783 H 74.119797 V 134.83871 H 178.20159 V 95.133218 H 74.119797 V 81.043098 H 178.20159 V 40.055701 Z"
       id="path150"
       style="fill:url(#SVGID_14_);stroke-width:0.264583" />
  </g>
</svg>
